<svg width="326" height="63" viewBox="0 0 326 63" fill="none" xmlns="http://www.w3.org/2000/svg">
<path d="M85.4054 19.3991L82.2165 31.223C81.8436 32.6276 81.5722 33.8616 81.3686 35.0952C81.1653 33.8616 80.9953 33.0397 80.5542 31.3263L77.4678 19.3991H71.3947L69.1895 43.2178H73.9053L74.7193 30.7772C74.8211 29.3036 74.889 27.8988 74.889 26.4931C75.1261 27.8639 75.533 29.544 75.8387 30.7088L79.1973 43.2178H83.2345L86.9659 30.1946C87.3735 28.7551 87.5771 27.8988 87.8485 26.528C87.8485 27.7957 87.916 28.9952 88.0178 30.5034L88.8997 43.2178H93.5481L91.4443 19.3991H85.4054" fill="white"/>
<path d="M107.225 39.9278C106.106 39.9278 105.156 39.6532 104.409 39.1055C102.985 38.0776 102.306 35.5068 102.306 31.394C102.306 28.5156 102.68 26.4243 103.493 24.8833C104.173 23.6142 105.563 22.7919 107.158 22.7919C109.668 22.7919 110.923 24.6087 111.296 25.8084C111.704 27.1448 111.907 28.8923 111.907 31.3263C111.907 37.3913 110.516 39.9278 107.225 39.9278V39.9278ZM107.225 19.0906C105.462 19.0906 103.731 19.5023 102.34 20.256C98.9481 22.141 97.0139 26.2537 97.0139 31.394C97.0139 34.89 97.9297 37.9058 99.7278 40.2364C101.526 42.6009 103.833 43.5948 107.395 43.5948C109.362 43.5948 110.686 43.2864 112.11 42.498C115.537 40.6135 117.369 36.5692 117.369 31.1886C117.369 23.7174 113.502 19.0906 107.225 19.0906" fill="white"/>
<path d="M133.216 29.1326C133.25 30.7772 133.42 33.8277 133.589 35.6785C133.114 33.9649 132.199 31.4631 131.011 28.9265L126.499 19.3991H121.24V43.2178H125.821L125.685 33.0397C125.651 31.051 125.617 28.2409 125.447 26.288C125.888 27.7613 127.313 31.1205 128.636 34.1019L132.674 43.2178H137.627V19.3991H133.114L133.216 29.1326" fill="white"/>
<path d="M143.327 43.2178H148.28V19.3997H143.327V43.2178Z" fill="white"/>
<path d="M151.674 23.3746H157.441V43.2178H162.258V23.3746H167.89L168.671 19.3991H151.674V23.3746" fill="white"/>
<path d="M178.985 39.9278C177.866 39.9278 176.916 39.6532 176.169 39.1055C174.744 38.0776 174.067 35.5068 174.067 31.394C174.067 28.5156 174.44 26.4243 175.253 24.8833C175.931 23.6142 177.323 22.7919 178.917 22.7919C181.428 22.7919 182.683 24.6087 183.056 25.8084C183.464 27.1448 183.667 28.8923 183.667 31.3263C183.667 37.3913 182.276 39.9278 178.985 39.9278V39.9278ZM178.985 19.0906C177.221 19.0906 175.492 19.5023 174.1 20.256C170.708 22.141 168.774 26.2537 168.774 31.394C168.774 34.89 169.689 37.9058 171.488 40.2364C173.285 42.6009 175.592 43.5948 179.155 43.5948C181.123 43.5948 182.446 43.2864 183.871 42.498C187.298 40.6135 189.129 36.5692 189.129 31.1886C189.129 23.7174 185.261 19.0906 178.985 19.0906Z" fill="white"/>
<path d="M199.242 29.6808H197.648V23.2379H199.344C200.498 23.2379 201.481 23.3746 202.025 23.5807C203.144 23.9916 203.721 25.02 203.721 26.4931C203.721 27.4874 203.381 28.3439 202.805 28.8919C202.16 29.4745 201.278 29.6808 199.242 29.6808V29.6808ZM203.449 32.9708C206.367 32.9022 208.708 29.9546 208.708 26.3905C208.708 22.2092 205.96 19.3991 201.787 19.3991H193.001V43.2178H197.648V33.2797C197.953 33.3135 198.157 33.3818 198.394 33.4844C199.242 33.8616 199.955 35.0271 202.296 39.3112C203.212 40.9901 203.585 41.6413 204.501 43.2178H210.099C210.099 43.2178 205.79 35.6785 204.433 33.9649C204.127 33.5535 203.924 33.3477 203.449 32.9708Z" fill="white"/>
<path d="M225.805 33.5877C226.314 32.0111 226.62 30.8802 227.061 29.1668C227.502 27.3844 228.18 24.5744 228.18 24.5744C228.18 24.5744 228.893 27.6929 229.13 28.79C229.639 31.0859 230.419 33.5877 230.419 33.5877H225.805ZM225.771 19.3305L218.036 43.2178H222.989L224.652 37.5634H231.573L233.235 43.2178H238.324L230.894 19.3305H225.771Z" fill="white"/>
<path d="M252.504 34.6496C252.504 35.9181 252.504 36.2607 252.437 36.7749C252.234 38.5228 250.91 39.5508 248.841 39.5508C247.28 39.5508 246.161 38.9684 245.618 37.9058C245.346 37.3913 245.211 36.5346 245.211 35.0613V19.3991H240.36V35.9869C240.36 38.2828 240.597 39.2419 241.378 40.4755C242.7 42.567 245.346 43.6635 248.943 43.6635C254.031 43.6635 256.338 41.059 256.949 39.1737C257.288 38.1457 257.322 37.7005 257.322 35.4378V19.3991H252.504V34.6496" fill="white"/>
<path d="M270.25 39.3112H267.706V23.169H269.877C271.742 23.169 272.828 23.8545 273.608 25.1571C274.558 26.7336 274.796 29.0635 274.796 31.8398C274.796 36.8778 273.372 39.3112 270.25 39.3112V39.3112ZM271.742 19.5358C270.792 19.4676 268.994 19.3991 267.637 19.3991H262.888V43.2178H268.621C270.012 43.2178 271.132 43.149 272.014 43.0811C274.219 42.9094 276.323 41.6074 277.748 39.6532C279.342 37.4944 280.122 34.6496 280.122 31.394C280.122 27.1106 279.07 24.0602 276.899 21.901C275.474 20.4613 273.745 19.7076 271.742 19.5358" fill="white"/>
<path d="M284.469 43.2178H289.422V19.3997H284.469V43.2178Z" fill="white"/>
<path d="M303.774 39.9278C302.654 39.9278 301.704 39.6532 300.959 39.1055C299.534 38.0776 298.855 35.5068 298.855 31.394C298.855 28.5156 299.228 26.4243 300.043 24.8833C300.721 23.6142 302.112 22.7919 303.706 22.7919C306.217 22.7919 307.472 24.6087 307.845 25.8084C308.252 27.1448 308.455 28.8923 308.455 31.3263C308.455 37.3913 307.064 39.9278 303.774 39.9278V39.9278ZM303.774 19.0906C302.01 19.0906 300.28 19.5023 298.889 20.256C295.497 22.141 293.563 26.2537 293.563 31.394C293.563 34.89 294.479 37.9058 296.276 40.2364C298.075 42.6009 300.381 43.5948 303.944 43.5948C305.911 43.5948 307.234 43.2864 308.659 42.498C312.085 40.6135 313.917 36.5692 313.917 31.1886C313.917 23.7174 310.05 19.0906 303.774 19.0906Z" fill="white"/>
<path d="M23.0122 22.0585C24.4454 22.0585 25.9791 22.3776 27.5738 23.0067V43.5179H34.5567V22.9976C36.1482 22.3692 37.6792 22.0513 39.1101 22.0513C43.8036 22.0513 46.4153 25.462 46.4896 28.6712C46.6199 34.314 44.1256 36.8672 39.9931 41.0973L39.3664 41.7395L39.3545 43.4997H51.0961L51.0954 41.5878H42.8134C44.105 40.724 46.0777 39.1821 47.7451 37.4511C50.6662 34.4189 52.1108 31.5219 52.0379 28.84C51.8415 21.5407 45.0706 19.8261 45.0352 19.8191C44.9641 19.7947 43.2711 19.2207 40.8572 19.2207C38.5679 19.2207 36.45 19.7287 34.553 20.7319L34.5581 19.4352L27.5641 19.4454L27.5667 20.7399C25.6708 19.7382 23.5548 19.2306 21.2674 19.2306C18.8426 19.2306 17.1399 19.8104 17.1016 19.8253C17.0332 19.8421 10.2653 21.5666 10.0791 28.8658C10.0131 31.4643 11.4157 34.2691 14.2485 37.2024C16.0481 39.0657 18.2096 40.7046 19.5941 41.6027L11.04 41.6133L11.0428 43.5256L22.7844 43.5081L22.7698 41.7474L22.1426 41.1069C18.0035 36.8833 15.5051 34.3338 15.6275 28.691C15.6972 25.4758 18.3089 22.0585 23.0122 22.0585Z" fill="white"/>
<path d="M322.751 31.4891C322.751 43.0599 318.25 51.27 309.372 55.891C302.617 59.4072 295.713 59.4652 295.646 59.4655H44.8762C55.0851 54.319 62.1174 43.6645 62.1174 31.3769C62.1174 19.084 55.0794 8.42557 44.8629 3.28198H295.646C306.847 3.28198 314.799 7.9227 319.279 17.0751C322.696 24.0562 322.751 31.1888 322.751 31.2584V31.4891V31.4891ZM3.24883 31.3769C3.24883 15.8862 15.7242 3.28343 31.0587 3.28343C46.3931 3.28343 58.8686 15.8862 58.8686 31.3769C58.8686 46.7974 46.5054 59.3514 31.2671 59.4655H30.9661V59.4684C15.6742 59.4173 3.24883 46.8364 3.24883 31.3769ZM322.243 15.7276C318.763 8.55284 311.324 -1.62309e-06 295.646 -1.62309e-06H30.9661V0.00364413C13.8827 0.0550618 0 14.1078 0 31.3769C0 48.6776 13.9327 62.7526 31.0587 62.7526C31.1285 62.7526 31.1972 62.7479 31.2671 62.7474H295.646C295.955 62.7474 303.305 62.703 310.749 58.866C317.706 55.2798 326 47.619 326 31.4891V31.2584C326 30.9404 325.957 23.3856 322.243 15.7276Z" fill="white"/>
</svg>
